<?xml version="1.0" encoding="utf-8"?>
<!-- Generator: Adobe Illustrator 19.2.1, SVG Export Plug-In . SVG Version: 6.00 Build 0)  -->
<svg version="1.1" id="Layer_1" xmlns="http://www.w3.org/2000/svg" xmlns:xlink="http://www.w3.org/1999/xlink" x="0px" y="0px"
	 viewBox="0 0 340.2 340.2" style="enable-background:new 0 0 340.2 340.2;" xml:space="preserve">
<style type="text/css">
	.st0{fill:#3E3934;}
</style>
<g>
	<path class="st0" d="M162.4,284.5c5.9-0.1,19.8-2.8,29.6-10.2c-51.4,8.7-75.1-31-77.1-34c-2.7-4.1-4.9-8.5-6.6-13
		c-0.1-0.3-0.2-0.7-0.2-1c0.2-1,1-0.4,1.4,0c3.6,4.2,7.3,8.4,11.3,12.3c11.8,11.5,26.1,20.6,42.3,24.8c4.4,1.1,8.9,1.8,13.4,1.7
		c21.7-0.4,29.9-11.4,30.5-26.9c0.8-21.7-15.1-34.9-47.7-47.6c-41.4-14.9-67-36.6-67-72.9c0-6.1,0.8-12,2.3-17.6
		c-22.6,19.2-36.9,47.8-36.9,79.8C57.7,237.6,104.6,285.2,162.4,284.5z"/>
	<path class="st0" d="M179.7,57.7c-5.9,0.1-19.8,2.8-29.6,10.2c51.4-8.7,75.1,31,77.1,34c2.7,4.1,4.9,8.5,6.6,13
		c0.1,0.3,0.2,0.7,0.2,1c-0.2,1-1,0.4-1.4,0c-3.6-4.2-7.3-8.4-11.3-12.3C209.5,92.2,195.2,83,179,78.9c-4.4-1.1-8.9-1.8-13.4-1.7
		c-21.7,0.4-29.9,11.4-30.5,26.9c-0.8,21.7,15.1,34.9,47.7,47.6c41.4,14.9,67,36.6,67,72.9c0,6.1-0.8,12-2.3,17.6
		c22.6-19.2,36.9-47.8,36.9-79.8C284.5,104.6,237.6,57,179.7,57.7z"/>
</g>
</svg>
