<?xml version="1.0" encoding="utf-8"?>
<!-- Generator: Adobe Illustrator 19.2.1, SVG Export Plug-In . SVG Version: 6.00 Build 0)  -->
<svg version="1.1" id="Layer_1" xmlns="http://www.w3.org/2000/svg" xmlns:xlink="http://www.w3.org/1999/xlink" x="0px" y="0px"
	 viewBox="0 0 311.8 232.4" style="enable-background:new 0 0 311.8 232.4;" xml:space="preserve">
<style type="text/css">
	.st0{fill:#ffffff;}
</style>
<g>
	<g>
		<path class="st0" d="M31.8,190.6l4.4-6.2c2.7,2.8,6.9,5.2,12.2,5.2c4.5,0,6.7-2.1,6.7-4.3c0-6.8-22.1-2.1-22.1-16.6
			c0-6.4,5.5-11.7,14.5-11.7c6.1,0,11.1,1.8,14.9,5.3l-4.5,6c-3.1-2.9-7.2-4.2-11.1-4.2c-3.5,0-5.5,1.6-5.5,3.9c0,6.1,22,2,22,16.3
			c0,7-5,12.3-15.3,12.3C40.7,196.7,35.4,194.2,31.8,190.6z"/>
		<path class="st0" d="M66.8,176.8c0-11.6,8.4-19.8,20-19.8s20.1,8.3,20.1,19.8s-8.4,19.8-20.1,19.8
			C75.3,196.7,66.8,188.4,66.8,176.8z M98.5,176.8c0-7.2-4.6-12.6-11.7-12.6s-11.6,5.4-11.6,12.6c0,7.1,4.5,12.6,11.6,12.6
			S98.5,184,98.5,176.8z"/>
		<path class="st0" d="M111.4,196v-38.3h8.2v31.1h16.2v7.2H111.4z"/>
		<path class="st0" d="M135.6,176.8c0-11.6,8.4-19.8,20-19.8s20.1,8.3,20.1,19.8s-8.4,19.8-20.1,19.8
			C144.1,196.7,135.6,188.4,135.6,176.8z M167.3,176.8c0-7.2-4.6-12.6-11.7-12.6c-7.1,0-11.6,5.4-11.6,12.6
			c0,7.1,4.5,12.6,11.6,12.6S167.3,184,167.3,176.8z"/>
		<path class="st0" d="M214,196v-26.8L203.2,196h-3.6l-10.8-26.8V196h-8.2v-38.3H192l9.3,23.2l9.3-23.2h11.5V196H214z"/>
		<path class="st0" d="M229.7,196v-38.3h8.2V196H229.7z"/>
		<path class="st0" d="M271.8,196l-2.4-6.5H253l-2.4,6.5h-9.3l14.8-38.3h10.3l14.8,38.3H271.8z M261.3,165.8l-6,16.5h12L261.3,165.8
			z"/>
	</g>
	<g>
		<path class="st0" d="M152.9,132.9c2.5,0,8.2-1.2,12.2-4.2c-21.2,3.6-31-12.8-31.8-14c-1.1-1.7-2-3.5-2.7-5.4
			c-0.1-0.1-0.1-0.3-0.1-0.4c0.1-0.4,0.4-0.2,0.6,0c1.5,1.7,3,3.4,4.7,5.1c4.9,4.8,10.8,8.5,17.4,10.2c1.8,0.5,3.7,0.7,5.5,0.7
			c8.9-0.2,12.3-4.7,12.6-11.1c0.3-8.9-6.2-14.4-19.7-19.6C134.5,88.1,124,79.1,124,64.1c0-2.5,0.3-5,0.9-7.3
			c-9.3,7.9-15.2,19.7-15.2,32.9C109.7,113.6,129.1,133.2,152.9,132.9z"/>
		<path class="st0" d="M160.1,39.4c-2.5,0-8.2,1.2-12.2,4.2c21.2-3.6,31,12.8,31.8,14c1.1,1.7,2,3.5,2.7,5.4
			c0.1,0.1,0.1,0.3,0.1,0.4c-0.1,0.4-0.4,0.2-0.6,0c-1.5-1.7-3-3.4-4.7-5.1c-4.9-4.8-10.8-8.5-17.4-10.2c-1.8-0.5-3.7-0.7-5.5-0.7
			c-8.9,0.2-12.3,4.7-12.6,11.1c-0.3,8.9,6.2,14.4,19.7,19.6c17.1,6.1,27.6,15.1,27.6,30.1c0,2.5-0.3,5-0.9,7.3
			c9.3-7.9,15.2-19.7,15.2-32.9C203.2,58.7,183.9,39.1,160.1,39.4z"/>
	</g>
</g>
</svg>
